<svg width="20" height="20" viewBox="0 0 20 20" fill="none" xmlns="http://www.w3.org/2000/svg">
<path d="M1.66669 1.66667H2.75516C2.96017 1.66667 3.06268 1.66667 3.14517 1.70437C3.21787 1.73759 3.27948 1.79103 3.32265 1.85829C3.37163 1.93462 3.38613 2.0361 3.41512 2.23906L3.80954 5.00001M3.80954 5.00001L4.68612 11.4428C4.79736 12.2604 4.85298 12.6692 5.04844 12.977C5.22067 13.2481 5.46759 13.4637 5.75948 13.5978C6.09074 13.75 6.50331 13.75 7.32844 13.75H14.46C15.2455 13.75 15.6382 13.75 15.9592 13.6087C16.2421 13.4841 16.4849 13.2832 16.6603 13.0285C16.8591 12.7397 16.9326 12.3539 17.0796 11.5823L18.1826 5.79141C18.2343 5.51984 18.2602 5.38406 18.2227 5.27792C18.1898 5.18481 18.125 5.10641 18.0396 5.05669C17.9424 5.00001 17.8042 5.00001 17.5277 5.00001H3.80954ZM8.33335 17.5C8.33335 17.9602 7.96026 18.3333 7.50002 18.3333C7.03978 18.3333 6.66669 17.9602 6.66669 17.5C6.66669 17.0398 7.03978 16.6667 7.50002 16.6667C7.96026 16.6667 8.33335 17.0398 8.33335 17.5ZM15 17.5C15 17.9602 14.6269 18.3333 14.1667 18.3333C13.7064 18.3333 13.3334 17.9602 13.3334 17.5C13.3334 17.0398 13.7064 16.6667 14.1667 16.6667C14.6269 16.6667 15 17.0398 15 17.5Z" stroke="white" stroke-width="1.66667" stroke-linecap="round" stroke-linejoin="round"/>
</svg>
