<svg width="134" height="19" viewBox="0 0 134 19" fill="none" xmlns="http://www.w3.org/2000/svg">
<path d="M128.805 0.579987C129.592 0.579987 130.198 0.666653 130.625 0.839987C131.052 0.999986 131.418 1.17332 131.725 1.35999C131.885 1.45332 132.012 1.52665 132.105 1.57999C132.212 1.61999 132.312 1.63999 132.405 1.63999C132.538 1.63999 132.632 1.56665 132.685 1.41999C132.752 1.27332 132.805 1.05332 132.845 0.759986H133.305C133.292 1.01332 133.272 1.31999 133.245 1.67999C133.232 2.02665 133.218 2.48665 133.205 3.05999C133.205 3.63332 133.205 4.38665 133.205 5.31999H132.745C132.692 4.62665 132.532 3.95332 132.265 3.29999C131.998 2.64665 131.618 2.11332 131.125 1.69999C130.645 1.27332 130.052 1.05999 129.345 1.05999C128.705 1.05999 128.178 1.23999 127.765 1.59999C127.352 1.95999 127.145 2.45999 127.145 3.09999C127.145 3.63332 127.278 4.09332 127.545 4.47999C127.812 4.85332 128.198 5.21999 128.705 5.57999C129.225 5.93999 129.852 6.37332 130.585 6.87999C131.225 7.29332 131.798 7.70665 132.305 8.11999C132.812 8.53332 133.218 8.99999 133.525 9.51999C133.832 10.04 133.985 10.66 133.985 11.38C133.985 12.26 133.752 12.9867 133.285 13.56C132.832 14.1333 132.232 14.5667 131.485 14.86C130.738 15.14 129.918 15.28 129.025 15.28C128.198 15.28 127.538 15.2 127.045 15.04C126.552 14.88 126.138 14.7133 125.805 14.54C125.512 14.3533 125.285 14.26 125.125 14.26C124.992 14.26 124.892 14.3333 124.825 14.48C124.772 14.6267 124.725 14.8467 124.685 15.14H124.225C124.252 14.82 124.265 14.4467 124.265 14.02C124.278 13.5933 124.285 13.04 124.285 12.36C124.298 11.6667 124.305 10.7933 124.305 9.73999H124.765C124.818 10.62 124.965 11.4467 125.205 12.22C125.458 12.98 125.838 13.5933 126.345 14.06C126.865 14.5267 127.552 14.76 128.405 14.76C128.872 14.76 129.285 14.68 129.645 14.52C130.018 14.3467 130.318 14.0933 130.545 13.76C130.772 13.4267 130.885 13.0133 130.885 12.52C130.885 11.96 130.752 11.4733 130.485 11.06C130.232 10.6467 129.878 10.26 129.425 9.89999C128.985 9.53999 128.472 9.17332 127.885 8.79999C127.258 8.38665 126.672 7.97332 126.125 7.55999C125.578 7.14665 125.138 6.67332 124.805 6.13999C124.485 5.60665 124.325 4.97332 124.325 4.23999C124.325 3.39999 124.532 2.71332 124.945 2.17999C125.372 1.63332 125.925 1.23332 126.605 0.979986C127.298 0.71332 128.032 0.579987 128.805 0.579987Z" fill="white"/>
<path d="M120.446 0.559998C120.78 0.559998 121.066 0.619998 121.306 0.739998C121.546 0.859998 121.733 1.03333 121.866 1.26C122.013 1.44666 122.12 1.69333 122.186 2C122.266 2.30666 122.306 2.61333 122.306 2.92C122.306 3.58666 122.133 4.20666 121.786 4.78C121.453 5.34 120.926 5.78666 120.206 6.12L120.026 5.76C120.4 5.6 120.733 5.35333 121.026 5.02C121.32 4.68666 121.493 4.34667 121.546 4C121.613 3.70667 121.613 3.42667 121.546 3.16C121.253 3.48 120.866 3.64 120.386 3.64C119.92 3.64 119.54 3.50667 119.246 3.24C118.953 2.96 118.806 2.58 118.806 2.1C118.806 1.63333 118.96 1.26 119.266 0.979999C119.586 0.699998 119.98 0.559998 120.446 0.559998Z" fill="white"/>
<path d="M111.736 4.38C112.802 4.38 113.742 4.6 114.556 5.04C115.369 5.46667 116.009 6.08 116.476 6.88C116.942 7.66667 117.176 8.59334 117.176 9.66001C117.176 10.7267 116.936 11.6867 116.456 12.54C115.989 13.38 115.329 14.0467 114.476 14.54C113.636 15.0333 112.649 15.28 111.516 15.28C110.476 15.28 109.542 15.06 108.716 14.62C107.902 14.18 107.256 13.5667 106.776 12.78C106.309 11.98 106.076 11.0467 106.076 9.98001C106.076 8.92667 106.309 7.98001 106.776 7.14001C107.242 6.28667 107.902 5.61334 108.756 5.12001C109.609 4.62667 110.602 4.38 111.736 4.38ZM111.556 4.74001C110.836 4.74001 110.242 5.2 109.776 6.12C109.322 7.02667 109.096 8.29334 109.096 9.92001C109.096 11.12 109.216 12.0867 109.456 12.82C109.696 13.5533 110.009 14.0867 110.396 14.42C110.796 14.7533 111.229 14.92 111.696 14.92C112.416 14.92 113.002 14.46 113.456 13.54C113.922 12.62 114.156 11.3467 114.156 9.72001C114.156 8.52001 114.036 7.55334 113.796 6.82001C113.556 6.08667 113.236 5.56001 112.836 5.24001C112.449 4.90667 112.022 4.74001 111.556 4.74001Z" fill="white"/>
<path d="M99.681 4.38C101.134 4.38 102.281 4.86001 103.121 5.82001C103.961 6.78001 104.381 8.14001 104.381 9.90001C104.381 10.9667 104.208 11.9267 103.861 12.78C103.528 13.62 103.074 14.3533 102.501 14.98C101.941 15.5933 101.314 16.1067 100.621 16.52C99.941 16.9467 99.241 17.28 98.521 17.52C97.8144 17.7733 97.1477 17.9467 96.521 18.04L96.441 17.64C97.0277 17.4667 97.6077 17.2333 98.181 16.94C98.7677 16.6467 99.2944 16.22 99.761 15.66C100.241 15.1133 100.628 14.3667 100.921 13.42C101.214 12.4733 101.361 11.2667 101.361 9.8C101.361 8.50667 101.261 7.50001 101.061 6.78001C100.874 6.04667 100.634 5.53334 100.341 5.24001C100.061 4.93334 99.7677 4.78 99.4611 4.78C99.1677 4.78 98.8877 4.92001 98.621 5.20001C98.3544 5.46667 98.1344 5.90667 97.961 6.52001C97.801 7.13334 97.721 7.94667 97.721 8.96001C97.721 9.90667 97.7944 10.6733 97.941 11.26C98.101 11.8333 98.3077 12.2467 98.5611 12.5C98.8277 12.7533 99.1144 12.88 99.4211 12.88C99.6477 12.88 99.901 12.8133 100.181 12.68C100.461 12.5467 100.721 12.3267 100.961 12.02C101.201 11.7133 101.374 11.3067 101.481 10.8L101.661 10.88C101.581 11.52 101.381 12.0267 101.061 12.4C100.754 12.7733 100.381 13.0467 99.941 13.22C99.501 13.38 99.061 13.46 98.621 13.46C97.9144 13.46 97.261 13.2867 96.661 12.94C96.0744 12.5933 95.6011 12.1 95.2411 11.46C94.8811 10.8067 94.701 10.0267 94.701 9.12001C94.701 8.09334 94.9277 7.22667 95.3811 6.52001C95.8477 5.81334 96.4544 5.28001 97.201 4.92001C97.961 4.56001 98.7877 4.38 99.681 4.38Z" fill="white"/>
<path d="M88.8795 0.839996V1.24C88.4528 1.29333 88.1328 1.40666 87.9195 1.58C87.7062 1.74 87.5595 2 87.4795 2.36C87.4128 2.72 87.3795 3.22666 87.3795 3.88V15.04C87.2195 15.0267 87.0528 15.02 86.8795 15.02C86.7195 15.02 86.5462 15.0267 86.3595 15.04L77.6795 4.04V11.72C77.6795 12.4533 77.7195 13.02 77.7995 13.42C77.8795 13.8067 78.0528 14.0867 78.3195 14.26C78.5995 14.42 79.0328 14.5333 79.6195 14.6V15C79.3662 14.9733 79.0328 14.96 78.6195 14.96C78.2062 14.9467 77.8195 14.94 77.4595 14.94C77.1528 14.94 76.8395 14.9467 76.5195 14.96C76.1995 14.96 75.9328 14.9733 75.7195 15V14.6C76.1461 14.5333 76.4662 14.42 76.6795 14.26C76.8928 14.1 77.0328 13.84 77.0995 13.48C77.1795 13.1067 77.2195 12.6 77.2195 11.96V2.96C77.2195 2.46666 77.1795 2.10666 77.0995 1.88C77.0328 1.64 76.8862 1.48 76.6595 1.4C76.4462 1.30666 76.1328 1.25333 75.7195 1.24V0.839996C75.9328 0.853329 76.1995 0.866662 76.5195 0.879995C76.8395 0.893329 77.1528 0.899995 77.4595 0.899995C77.7795 0.899995 78.0862 0.893329 78.3795 0.879995C78.6728 0.866662 78.9395 0.853329 79.1795 0.839996L86.9195 10.38V4.12C86.9195 3.38666 86.8795 2.82666 86.7995 2.44C86.7195 2.04 86.5395 1.75333 86.2595 1.58C85.9928 1.40666 85.5662 1.29333 84.9795 1.24V0.839996C85.2328 0.853329 85.5662 0.866662 85.9795 0.879995C86.3928 0.893329 86.7795 0.899995 87.1395 0.899995C87.4595 0.899995 87.7728 0.893329 88.0795 0.879995C88.3995 0.866662 88.6662 0.853329 88.8795 0.839996Z" fill="white"/>
<path d="M67.2564 0.559998C68.6697 0.559998 69.9031 0.846665 70.9564 1.42C72.0231 1.99333 72.8497 2.82 73.4364 3.9C74.0231 4.96667 74.3164 6.26666 74.3164 7.8C74.3164 9.29333 74.0164 10.6 73.4164 11.72C72.8164 12.84 71.9764 13.7133 70.8964 14.34C69.8297 14.9667 68.6097 15.28 67.2364 15.28C65.8231 15.28 64.5831 14.9933 63.5164 14.42C62.4631 13.8467 61.6431 13.02 61.0564 11.94C60.4697 10.86 60.1764 9.56 60.1764 8.04C60.1764 6.54667 60.4764 5.24 61.0764 4.12C61.6897 3 62.5231 2.12667 63.5764 1.5C64.6431 0.873332 65.8697 0.559998 67.2564 0.559998ZM67.1764 0.919998C66.4297 0.919998 65.7764 1.22 65.2164 1.82C64.6697 2.42 64.2431 3.24667 63.9364 4.3C63.6431 5.35333 63.4964 6.57333 63.4964 7.96C63.4964 9.37333 63.6631 10.6067 63.9964 11.66C64.3431 12.7 64.8031 13.5067 65.3764 14.08C65.9631 14.64 66.6097 14.92 67.3164 14.92C68.0631 14.92 68.7097 14.62 69.2564 14.02C69.8164 13.42 70.2431 12.5933 70.5364 11.54C70.8431 10.4733 70.9964 9.25333 70.9964 7.88C70.9964 6.45333 70.8231 5.22 70.4764 4.18C70.1431 3.14 69.6831 2.34 69.0964 1.78C68.5231 1.20666 67.8831 0.919998 67.1764 0.919998Z" fill="white"/>
<path d="M58.8132 0.839996V1.24C58.3865 1.25333 58.0598 1.30666 57.8332 1.4C57.6198 1.48 57.4798 1.64 57.4132 1.88C57.3465 2.10666 57.3132 2.46666 57.3132 2.96V12.88C57.3132 13.36 57.3465 13.72 57.4132 13.96C57.4932 14.2 57.6398 14.36 57.8532 14.44C58.0665 14.52 58.3865 14.5733 58.8132 14.6V15C58.4532 14.9733 57.9998 14.96 57.4532 14.96C56.9065 14.9467 56.3532 14.94 55.7932 14.94C55.1398 14.94 54.5332 14.9467 53.9732 14.96C53.4265 14.96 52.9798 14.9733 52.6332 15V14.6C53.0598 14.5733 53.3798 14.52 53.5932 14.44C53.8065 14.36 53.9465 14.2 54.0132 13.96C54.0932 13.72 54.1332 13.36 54.1332 12.88V2.96C54.1332 2.46666 54.0932 2.10666 54.0132 1.88C53.9465 1.64 53.7998 1.48 53.5732 1.4C53.3598 1.30666 53.0465 1.25333 52.6332 1.24V0.839996C52.9798 0.853329 53.4265 0.866662 53.9732 0.879995C54.5332 0.893329 55.1398 0.899995 55.7932 0.899995C56.3532 0.899995 56.9065 0.893329 57.4532 0.879995C57.9998 0.866662 58.4532 0.853329 58.8132 0.839996Z" fill="white"/>
<path d="M45.1171 15V14.6C45.5438 14.5733 45.8638 14.52 46.0771 14.44C46.2904 14.36 46.4304 14.2 46.4971 13.96C46.5771 13.72 46.6171 13.36 46.6171 12.88V2.96C46.6171 2.46666 46.5771 2.10666 46.4971 1.88C46.4304 1.64 46.2838 1.48 46.0571 1.4C45.8438 1.30666 45.5304 1.25333 45.1171 1.24V0.839996C45.4771 0.853329 45.9438 0.866662 46.5171 0.879995C47.1038 0.893329 47.6838 0.899995 48.2571 0.899995C48.8704 0.899995 49.4438 0.893329 49.9771 0.879995C50.5238 0.866662 50.9638 0.853329 51.2971 0.839996V1.24C50.8704 1.25333 50.5438 1.30666 50.3171 1.4C50.1038 1.48 49.9638 1.64 49.8971 1.88C49.8304 2.10666 49.7971 2.46666 49.7971 2.96V12.88C49.7971 13.36 49.8304 13.72 49.8971 13.96C49.9771 14.2 50.1238 14.36 50.3371 14.44C50.5504 14.52 50.8704 14.5733 51.2971 14.6V15C50.9638 14.9733 50.5238 14.96 49.9771 14.96C49.4438 14.9467 48.8704 14.94 48.2571 14.94C47.6838 14.94 47.1038 14.9467 46.5171 14.96C45.9438 14.96 45.4771 14.9733 45.1171 15ZM36.6371 15V14.6C37.0638 14.5733 37.3838 14.52 37.5971 14.44C37.8104 14.36 37.9504 14.2 38.0171 13.96C38.0971 13.72 38.1371 13.36 38.1371 12.88V2.96C38.1371 2.46666 38.0971 2.10666 38.0171 1.88C37.9504 1.64 37.8038 1.48 37.5771 1.4C37.3638 1.30666 37.0504 1.25333 36.6371 1.24V0.839996C36.9838 0.853329 37.4304 0.866662 37.9771 0.879995C38.5371 0.893329 39.1438 0.899995 39.7971 0.899995C40.3571 0.899995 40.9104 0.893329 41.4571 0.879995C42.0038 0.866662 42.4571 0.853329 42.8171 0.839996V1.24C42.3904 1.25333 42.0638 1.30666 41.8371 1.4C41.6238 1.48 41.4838 1.64 41.4171 1.88C41.3504 2.10666 41.3171 2.46666 41.3171 2.96V12.88C41.3171 13.36 41.3504 13.72 41.4171 13.96C41.4971 14.2 41.6438 14.36 41.8571 14.44C42.0704 14.52 42.3904 14.5733 42.8171 14.6V15C42.4571 14.9733 42.0038 14.96 41.4571 14.96C40.9104 14.9467 40.3571 14.94 39.7971 14.94C39.1438 14.94 38.5371 14.9467 37.9771 14.96C37.4304 14.96 36.9838 14.9733 36.6371 15ZM40.0171 8.08V7.68H47.9171V8.08H40.0171Z" fill="white"/>
<path d="M29.9573 0.579987C30.744 0.579987 31.3507 0.666653 31.7773 0.839987C32.204 0.999986 32.5707 1.17332 32.8773 1.35999C33.0373 1.45332 33.164 1.52665 33.2573 1.57999C33.364 1.61999 33.464 1.63999 33.5573 1.63999C33.6907 1.63999 33.784 1.56665 33.8373 1.41999C33.904 1.27332 33.9573 1.05332 33.9973 0.759986H34.4573C34.444 1.01332 34.424 1.31999 34.3973 1.67999C34.384 2.02665 34.3707 2.48665 34.3573 3.05999C34.3573 3.63332 34.3573 4.38665 34.3573 5.31999H33.8973C33.844 4.62665 33.684 3.95332 33.4173 3.29999C33.1507 2.64665 32.7707 2.11332 32.2773 1.69999C31.7973 1.27332 31.204 1.05999 30.4973 1.05999C29.8573 1.05999 29.3307 1.23999 28.9173 1.59999C28.504 1.95999 28.2973 2.45999 28.2973 3.09999C28.2973 3.63332 28.4307 4.09332 28.6973 4.47999C28.964 4.85332 29.3507 5.21999 29.8573 5.57999C30.3773 5.93999 31.004 6.37332 31.7373 6.87999C32.3773 7.29332 32.9507 7.70665 33.4573 8.11999C33.964 8.53332 34.3707 8.99999 34.6773 9.51999C34.984 10.04 35.1373 10.66 35.1373 11.38C35.1373 12.26 34.904 12.9867 34.4373 13.56C33.984 14.1333 33.384 14.5667 32.6373 14.86C31.8907 15.14 31.0707 15.28 30.1773 15.28C29.3507 15.28 28.6907 15.2 28.1973 15.04C27.704 14.88 27.2907 14.7133 26.9573 14.54C26.664 14.3533 26.4373 14.26 26.2773 14.26C26.144 14.26 26.044 14.3333 25.9773 14.48C25.924 14.6267 25.8773 14.8467 25.8373 15.14H25.3773C25.404 14.82 25.4173 14.4467 25.4173 14.02C25.4307 13.5933 25.4373 13.04 25.4373 12.36C25.4507 11.6667 25.4573 10.7933 25.4573 9.73999H25.9173C25.9707 10.62 26.1173 11.4467 26.3573 12.22C26.6107 12.98 26.9907 13.5933 27.4973 14.06C28.0173 14.5267 28.704 14.76 29.5573 14.76C30.024 14.76 30.4373 14.68 30.7973 14.52C31.1707 14.3467 31.4707 14.0933 31.6973 13.76C31.924 13.4267 32.0373 13.0133 32.0373 12.52C32.0373 11.96 31.904 11.4733 31.6373 11.06C31.384 10.6467 31.0307 10.26 30.5773 9.89999C30.1373 9.53999 29.624 9.17332 29.0373 8.79999C28.4107 8.38665 27.824 7.97332 27.2773 7.55999C26.7307 7.14665 26.2907 6.67332 25.9573 6.13999C25.6373 5.60665 25.4773 4.97332 25.4773 4.23999C25.4773 3.39999 25.684 2.71332 26.0973 2.17999C26.524 1.63332 27.0773 1.23332 27.7573 0.979986C28.4507 0.71332 29.184 0.579987 29.9573 0.579987Z" fill="white"/>
<path d="M18.2975 0.799988L23.1575 13.32C23.3441 13.8 23.5508 14.1333 23.7775 14.32C24.0175 14.4933 24.2308 14.5867 24.4175 14.6V15C24.0175 14.9733 23.5441 14.96 22.9975 14.96C22.4641 14.9467 21.9241 14.94 21.3775 14.94C20.7641 14.94 20.1841 14.9467 19.6375 14.96C19.0908 14.96 18.6575 14.9733 18.3375 15V14.6C19.0175 14.5733 19.4441 14.46 19.6175 14.26C19.8041 14.0467 19.7641 13.6 19.4975 12.92L16.0975 3.61999L16.4575 3.09999L13.4175 11.02C13.1241 11.7533 12.9441 12.3533 12.8775 12.82C12.8241 13.2867 12.8575 13.6467 12.9775 13.9C13.1108 14.1533 13.3175 14.3333 13.5975 14.44C13.8908 14.5333 14.2375 14.5867 14.6375 14.6V15C14.1975 14.9733 13.7775 14.96 13.3775 14.96C12.9775 14.9467 12.5708 14.94 12.1575 14.94C11.8641 14.94 11.5841 14.9467 11.3175 14.96C11.0641 14.96 10.8375 14.9733 10.6375 15V14.6C10.9175 14.5467 11.2041 14.3667 11.4975 14.06C11.7908 13.7533 12.0775 13.2333 12.3575 12.5L16.9175 0.799988C17.1308 0.813321 17.3575 0.819987 17.5975 0.819987C17.8508 0.819987 18.0841 0.813321 18.2975 0.799988ZM19.6975 9.23999V9.63999H13.7375L13.9375 9.23999H19.6975Z" fill="white"/>
<path d="M11.5754 0.839996C11.522 1.44 11.482 2.02 11.4554 2.58C11.442 3.14 11.4354 3.57333 11.4354 3.88C11.4354 4.17333 11.442 4.45333 11.4554 4.72C11.4687 4.98666 11.482 5.21333 11.4954 5.4H11.0354C10.862 4.36 10.622 3.54666 10.3154 2.96C10.0087 2.36 9.6287 1.93333 9.17537 1.68C8.73537 1.42666 8.2087 1.29999 7.59537 1.29999H6.93537C6.5487 1.29999 6.25537 1.33333 6.05537 1.4C5.85537 1.46666 5.72203 1.6 5.65537 1.8C5.5887 2 5.55537 2.30666 5.55537 2.72V12.76C5.55537 13.28 5.6087 13.6667 5.71537 13.92C5.82203 14.1733 6.0287 14.34 6.33537 14.42C6.64203 14.5 7.09537 14.5467 7.69537 14.56V15C7.28203 14.9867 6.7487 14.9733 6.09537 14.96C5.44203 14.9467 4.75537 14.94 4.03537 14.94C3.46203 14.94 2.90203 14.9467 2.35537 14.96C1.8087 14.9733 1.31537 14.9867 0.875366 15V14.6C1.30203 14.5733 1.62203 14.52 1.83537 14.44C2.0487 14.36 2.1887 14.2 2.25537 13.96C2.33537 13.72 2.37537 13.36 2.37537 12.88V2.96C2.37537 2.46666 2.33537 2.10666 2.25537 1.88C2.1887 1.64 2.04203 1.48 1.81537 1.4C1.60203 1.30666 1.2887 1.25333 0.875366 1.24V0.839996C1.42203 0.853329 2.00203 0.866662 2.61537 0.879995C3.2287 0.879995 3.83537 0.886662 4.43537 0.899995C5.03537 0.899995 5.59537 0.899995 6.11537 0.899995C6.63537 0.899995 7.06203 0.899995 7.39537 0.899995C8.0087 0.899995 8.70203 0.899995 9.47537 0.899995C10.262 0.886662 10.962 0.866663 11.5754 0.839996ZM8.59537 7.76C8.59537 7.76 8.59537 7.82666 8.59537 7.96C8.59537 8.09333 8.59537 8.16 8.59537 8.16H4.95537C4.95537 8.16 4.95537 8.09333 4.95537 7.96C4.95537 7.82666 4.95537 7.76 4.95537 7.76H8.59537ZM9.09537 5.12C9.04203 5.88 9.01537 6.46 9.01537 6.86C9.0287 7.26 9.03537 7.62666 9.03537 7.96C9.03537 8.29333 9.04203 8.66 9.05537 9.06C9.0687 9.46 9.10203 10.04 9.15537 10.8H8.69537C8.61537 10.3333 8.4887 9.9 8.31537 9.5C8.14203 9.1 7.8887 8.78 7.55537 8.54C7.22203 8.28666 6.7887 8.16 6.25537 8.16V7.76C6.65537 7.76 6.9887 7.68 7.25537 7.52C7.53537 7.34666 7.7687 7.12666 7.95537 6.86C8.14203 6.58 8.2887 6.28666 8.39537 5.98C8.50203 5.67333 8.58203 5.38666 8.63537 5.12H9.09537Z" fill="white"/>
</svg>
